<?xml version="1.0" encoding="UTF-8"?>
<svg width="250px" height="40px" viewBox="0 0 201 32" version="1.1" xmlns="http://www.w3.org/2000/svg" xmlns:xlink="http://www.w3.org/1999/xlink">
    <!-- Generator: Sketch 62 (91390) - https://sketch.com -->
    <title>LOGOS/BT PTX Color</title>
    <desc>Created with Sketch.</desc>
    <defs>
        <polygon id="path-1" points="0.0454081897 0.0662250036 167.687335 0.0662250036 167.687335 28.9716887 0.0454081897 28.9716887"></polygon>
    </defs>
    <g id="2.-User-Management---17-Feb" stroke="none" stroke-width="1" fill="none" fill-rule="evenodd">
        <g id="LOGOS/BT-PTX-Color">
            <g id="Group-8">
                <path d="M19.9828108,11.7733206 L15.4422302,14.38149 L11.8022207,12.2707625 L14.5082868,10.668164 C14.5082868,10.668164 18.2339038,8.25139317 22.1089711,10.2761371 C21.1121521,11.2127269 19.9828108,11.7733206 19.9828108,11.7733206 L19.9828108,11.7733206 Z M7.01836016,6.46031091 C7.01836016,6.46031091 9.59528958,4.7829019 12.8101638,6.10131721 L7.02368039,9.50082728 L4.49028018,8.03133343 L7.01836016,6.46031091 Z M23.7442185,7.84430694 C23.6852123,5.77632832 21.8768153,4.98935972 21.8768153,4.98935972 C19.145599,3.60973574 16.0559922,4.64008167 15.0233825,5.06028405 C15.0233825,5.06028405 15.1467153,5.47174232 15.0006506,3.33138203 C14.8545859,1.19005017 12.8038763,0.5541601 12.8038763,0.5541601 C9.62624369,-0.309076452 7.36852849,0.930156212 7.15765364,1.02002608 C6.96370681,1.10066608 1.53658123,4.49191783 0.606023381,5.07340019 C0,5.40859052 0.00145097378,6.00416059 0.00145097378,6.00416059 L0.00145097378,9.89528315 C0.00145097378,9.89528315 0,10.3349168 0,10.6195857 C0,11.1126556 0.247632858,11.2428454 0.299867914,11.2739356 C1.34021611,11.8835933 12.0348602,18.0729557 14.937775,19.6896418 C15.3754855,19.9335049 15.4789882,20.0063724 15.677288,19.9995714 C15.8949341,19.9917989 16.0318093,19.8722963 16.4366309,19.6420351 C17.7386381,18.9007301 17.9412907,18.8302915 20.1516075,17.4579543 C22.3619242,16.0846455 23.7355127,14.9425695 23.7355127,13.9029936 C23.7355127,12.4840212 23.7611466,8.28005437 23.7442185,7.84430694 L23.7442185,7.84430694 Z" id="Fill-1" fill="#1FA2FF"></path>
                <path d="M0.980063078,13.5760348 C0.763724843,13.4517899 0.661605452,13.4045961 0.45252689,13.2919089 C0.213441682,13.1633299 -0.00144461879,13.358847 0,13.4985021 C0.00097527198,13.6381572 0.00436311906,13.7248396 0.00436311906,13.9738109 L0.00436311906,18.1706866 C0.00436311906,18.4201395 0.18246708,18.7254543 0.399289293,18.8492176 C0.399289293,18.8492176 10.8503136,24.7518115 10.8537014,24.8303073 C10.8570892,24.9150634 8.33604704,26.286091 8.33604704,26.286091 C8.11874085,26.4093727 7.94063689,26.714206 7.94063689,26.9631773 L7.94063689,31.7205996 C7.94063689,31.9695708 8.11825687,32.0716635 8.33459511,31.9464555 L15.4006762,27.8796035 C15.6174984,27.7543955 15.8009261,27.6561554 15.8081858,27.6609711 C15.8154454,27.6648236 15.8217372,27.6614527 15.8217372,27.6527844 C15.8217372,27.6445977 15.9988732,27.5352815 16.2152114,27.4110367 L23.6060418,23.1568542 C23.822864,23.0321278 24,22.7263314 24,22.4763969 L24,17.8152885 C24,17.5658357 23.82238,17.4627799 23.6050738,17.5865432 L16.1469705,21.8359099 C15.9296643,21.9591916 15.5749083,21.95871 15.3580861,21.8339836 L0.980063078,13.5760348 Z" id="Fill-3" fill="#1FA2FF"></path>
                <g id="Group-7" transform="translate(32.750000, 0.000000)">
                    <mask id="mask-2" fill="white">
                        <use xlink:href="#path-1"></use>
                    </mask>
                    <g id="Clip-6"></g>
                    <path d="M142.112305,13.7418561 C141.979744,14.150907 141.766682,14.5235125 141.473601,14.8596728 C141.179557,15.195833 140.786212,15.4701321 140.295013,15.6811313 C139.802368,15.8930897 139.204638,15.9990689 138.499895,15.9990689 L132.96993,15.9990689 L132.96993,8.98621987 L138.631492,8.98621987 C139.42493,8.98621987 140.059295,9.11425808 140.536997,9.36985494 C141.014217,9.62593135 141.385388,9.93955301 141.649546,10.3121586 C141.913704,10.6847641 142.089649,11.0722356 142.178826,11.4740933 C142.266558,11.8754715 142.310423,12.2226612 142.310423,12.5142239 C142.310423,12.9237543 142.244384,13.3328052 142.112305,13.7418561 L142.112305,13.7418561 Z M141.660633,8.93155187 C141.198356,8.61745066 140.697999,8.40932864 140.162452,8.3071858 C139.626423,8.20504297 139.138599,8.15373177 138.697532,8.15373177 L132.001029,8.15373177 L132.001029,23.8007676 L132.96993,23.8007676 L132.96993,16.8320366 L138.34516,16.8320366 C139.932037,16.8320366 141.14967,16.459431 142.001918,15.7142199 C142.853683,14.9690088 143.279806,13.910176 143.279806,12.5362829 C143.279806,11.6016519 143.125553,10.8454113 142.816566,10.2680405 C142.508542,9.69114931 142.12291,9.24613263 141.660633,8.93155187 L141.660633,8.93155187 Z M161.82775,15.7578584 L167.379407,8.15373177 L166.277464,8.15373177 L161.188565,15.0347063 L156.211017,8.15373177 L143.323672,8.15373177 L143.323672,8.98621987 L148.852191,8.98621987 L148.852191,23.8007676 L149.821574,23.8007676 L149.821574,8.98621987 L155.373231,8.98621987 L155.373231,8.54887589 L160.593727,15.7578584 L154.69018,23.8007676 L155.83599,23.8007676 L161.188565,16.4810105 L166.51993,23.8007676 L167.687431,23.8007676 L161.82775,15.7578584 Z M119.583673,28.9716887 L120.058,28.9716887 L120.058,0.0662250036 L119.583673,0.0662250036 L119.583673,28.9716887 Z M77.3150109,23.6123068 L80.7924491,23.6123068 L80.7924491,11.4501161 L77.3150109,11.4501161 L77.3150109,23.6123068 Z M79.0402329,4.27182443 C77.8968335,4.27182443 76.9775828,5.21173035 76.9775828,6.32475159 C76.9775828,7.46222957 77.8968335,8.3771992 79.0402329,8.3771992 C80.1841144,8.3771992 81.1043292,7.46222957 81.1043292,6.32475159 C81.1043292,5.21173035 80.1841144,4.27182443 79.0402329,4.27182443 L79.0402329,4.27182443 Z M98.7985799,15.9199442 C98.9735605,14.6683348 99.7453069,13.4905751 101.141777,13.4905751 C102.486188,13.4905751 103.283482,14.6927915 103.458463,15.9199442 L98.7985799,15.9199442 Z M100.941731,11.0631242 C96.9803241,11.0631242 95.0136,13.9562122 95.0136,17.6362316 C95.0136,21.31721 97.3293213,23.996901 101.115747,23.996901 C103.682611,23.996901 105.825762,22.6325988 106.672225,20.2070661 L103.458463,19.6881996 C102.984617,20.6516032 102.262521,21.3426259 101.115747,21.3426259 C99.2965274,21.3426259 98.6983155,19.6148294 98.6983155,18.0841255 L106.748387,18.0841255 L106.748387,17.6606883 C106.748387,14.0056052 104.95327,11.0631242 100.941731,11.0631242 L100.941731,11.0631242 Z M71.6765864,23.6123068 L75.1549886,23.6123068 L75.1549886,2.59390056 L71.6765864,2.59390056 L71.6765864,23.6123068 Z M89.6653636,11.0655219 C88.4154333,11.0655219 87.1900871,11.4880001 86.4670267,12.58136 L86.4164125,12.58136 L86.4164125,11.4501161 L82.9380102,11.4501161 L82.9380102,23.6123068 L86.4164125,23.6123068 L86.4164125,17.591634 C86.4164125,16.148207 86.4414786,13.8492739 88.5152157,13.8492739 C90.4886884,13.8492739 90.4139721,15.7276471 90.4139721,17.1859399 L90.4139721,23.6123068 L93.8914103,23.6123068 L93.8914103,16.1976001 C93.8914103,13.3769232 92.9485397,11.0655219 89.6653636,11.0655219 L89.6653636,11.0655219 Z M4.4777681,20.6947621 L3.70505761,20.6947621 L3.70505761,15.4758866 L4.3027875,15.4758866 C6.14851954,15.4758866 8.14368405,15.5756317 8.14368405,18.0102758 C8.14368405,20.4458789 6.44786652,20.6947621 4.4777681,20.6947621 L4.4777681,20.6947621 Z M3.70505761,7.83531467 L4.17842112,7.83531467 C5.72480618,7.83531467 6.82192974,8.33116299 6.82192974,10.2387884 C6.82192974,12.1718296 5.94943693,12.6921346 4.15383707,12.6921346 L3.70505761,12.6921346 L3.70505761,7.83531467 Z M8.59198147,13.6118997 C9.76864167,12.866209 10.2434513,11.329271 10.2434513,9.99086421 C10.2434513,6.27727675 8.09548003,4.91729043 4.60213448,4.91729043 L0.0454081897,4.91729043 L0.0454081897,23.6123068 L5.79904037,23.6123068 C9.21333132,23.6123068 11.8028514,21.9799396 11.8028514,18.3090316 C11.8028514,16.2465135 10.8064743,14.0094415 8.59198147,13.6118997 L8.59198147,13.6118997 Z M65.8063004,11.0655219 C64.3799434,11.0655219 62.9767243,11.7862763 62.230526,12.9789018 C61.4356417,11.6865312 60.2421101,11.0655219 58.7241654,11.0655219 C57.5976374,11.0655219 56.3963931,11.5872656 55.7196086,12.5569033 L55.6699585,12.5569033 L55.6699585,11.4501161 L52.1915562,11.4501161 L52.1915562,23.6123068 L55.6699585,23.6123068 L55.6699585,17.641027 C55.6699585,16.3702358 55.5701761,13.8492739 57.5224391,13.8492739 C59.3479254,13.8492739 59.2004211,16.2714498 59.2004211,17.4578413 L59.2004211,23.6123068 L62.6783414,23.6123068 L62.6783414,17.6558929 C62.6783414,16.3951721 62.6532753,13.8492739 64.555406,13.8492739 C66.2820741,13.8492739 66.208322,16.0489415 66.208322,17.2353329 L66.208322,23.6123068 L69.6857602,23.6123068 L69.6857602,16.0489415 C69.6857602,13.4018595 68.9154599,11.0655219 65.8063004,11.0655219 L65.8063004,11.0655219 Z M38.769146,11.4501161 L36.6259951,11.4501161 L36.6259951,7.33562999 L33.1480749,7.33562999 L33.1480749,11.4501161 L30.297771,11.4501161 L30.297771,7.33562999 L26.8193687,7.33562999 L26.8193687,11.4501161 L25.6234269,11.4501161 L25.6234269,14.3681403 L26.8193687,14.3681403 L26.8193687,23.6123068 L30.297771,23.6123068 L30.297771,14.3681403 L33.1480749,14.3681403 L33.1480749,23.6123068 L36.6259951,23.6123068 L36.6259951,14.3681403 L38.769146,14.3681403 L38.769146,11.4501161 Z M18.8150907,20.9263818 C17.0190088,20.9263818 15.9214032,19.1731696 15.9214032,17.5432001 C15.9214032,15.8647966 17.0190088,14.1355616 18.8150907,14.1355616 C20.6116546,14.1355616 21.7092602,15.8647966 21.7092602,17.5432001 C21.7092602,19.1731696 20.6116546,20.9263818 18.8150907,20.9263818 L18.8150907,20.9263818 Z M18.8150907,11.0631242 C15.0016704,11.0631242 12.3914226,13.7643946 12.3914226,17.5432001 C12.3914226,21.2985078 14.9766043,23.9997782 18.8150907,23.9997782 C22.6545411,23.9997782 25.2392408,21.2985078 25.2392408,17.5432001 C25.2392408,13.7643946 22.628993,11.0631242 18.8150907,11.0631242 L18.8150907,11.0631242 Z M44.628827,20.9263818 C42.8322631,20.9263818 41.7346575,19.1731696 41.7346575,17.5432001 C41.7346575,15.8647966 42.8322631,14.1355616 44.628827,14.1355616 C46.4249089,14.1355616 47.5225145,15.8647966 47.5225145,17.5432001 C47.5225145,19.1731696 46.4249089,20.9263818 44.628827,20.9263818 L44.628827,20.9263818 Z M44.628827,11.0631242 C40.8144427,11.0631242 38.2046769,13.7643946 38.2046769,17.5432001 C38.2046769,21.2985078 40.7903407,23.9997782 44.628827,23.9997782 C48.4673134,23.9997782 51.0529772,21.2985078 51.0529772,17.5432001 C51.0529772,13.7643946 48.4427293,11.0631242 44.628827,11.0631242 L44.628827,11.0631242 Z" id="Fill-5" fill="#000000" mask="url(#mask-2)"></path>
                </g>
            </g>
        </g>
    </g>
</svg>